Motion_kv09_l
version=1
nRows=5
nColumns=43
inDegrees=yes
endheader
time	pelvis_tilt	pelvis_list	pelvis_rotation	pelvis_tx	pelvis_ty	pelvis_tz	hip_flexion_r	hip_adduction_r	hip_rotation_r	knee_angle_r	ankle_angle_r	subtalar_angle_r	mtp_angle_r	hip_flexion_l	hip_adduction_l	hip_rotation_l	knee_angle_l	ankle_angle_l	subtalar_angle_l	mtp_angle_l	lumbar_extension	lumbar_bending	lumbar_rotation	neck_flexion	neck_lateral_bending	neck_rotation	arm_flex_r	arm_add_r	arm_rot_r	elbow_flex_r	pro_sup_r	wrist_flex_r	wrist_dev_r	hand_finger_flex_r	arm_flex_l	arm_add_l	arm_rot_l	elbow_flex_l	pro_sup_l	wrist_flex_l	wrist_dev_l	hand_finger_flex_l
      2.56250000	      2.10840965	    -17.14855971	     89.52099964	      0.01143054	      0.78553093	      0.32838750	     63.44080549	     -1.01425112	     -1.41334471	    -76.90776937	     18.03266719	      5.28774862	     16.26017799	     63.00892147	    -11.22743125	      0.90234048	    -77.46762493	     13.39925897	     18.95501684	     31.22570046	    -40.22063454	     -1.64102286	      0.41500219	     22.06524834	      3.97228473	     -3.12930363	     49.66034243	    -24.28891289	     -1.30305072	     70.27070690	    121.70428840	      3.63038177	     -4.56677509	     17.68157035	     43.38727408	    -31.80915640	     -1.12814295	     59.21074900	    121.94032225	    -24.48461705	     -5.80110731	    -21.64838373
      2.56500000	      2.12575748	    -17.20075730	     89.54316564	      0.01136881	      0.78779598	      0.32792962	     63.14019211	     -0.99560122	     -1.41466371	    -76.36259956	     17.94281451	      5.28736116	     16.24900536	     62.71148191	    -11.18401255	      0.87771523	    -76.92533447	     13.32746485	     18.91943574	     31.20645820	    -40.08778823	     -1.61381300	      0.41161571	     22.04789145	      3.95936006	     -3.12842348	     49.00358930	    -24.35084797	     -1.25789825	     70.01760902	    121.85490621	      3.54664072	     -4.54022568	     17.68330444	     42.71365558	    -31.73503103	     -1.06249880	     58.98622165	    121.94567114	    -24.40185166	     -5.74239967	    -21.60845397
      2.56750000	      2.17626965	    -16.69889145	     89.59293855	      0.01137404	      0.79129334	      0.32681458	     62.16023058	     -0.95396786	     -1.47501161	    -75.77105023	     17.83207906	      5.12293667	     16.27983164	     61.76240014	    -11.15562323	      0.84421779	    -76.35770371	     13.19920502	     18.65561058	     31.14890568	    -40.60049360	     -1.57170940	      0.38737215	     22.18867446	      4.00632286	     -3.12585075	     48.31426350	    -24.11783294	     -1.43773655	     69.75393247	    123.09156692	      2.39682279	     -4.78661346	     17.48857697	     42.03925092	    -31.48522019	     -1.48626089	     58.91652905	    122.01526979	    -23.91890482	     -5.56773920	    -21.31725458
      2.57000000	      2.18231364	    -16.76095866	     89.60182646	      0.01122603	      0.79342481	      0.32631868	     61.89469966	     -0.96221260	     -1.48974222	    -75.27078435	     17.69713637	      5.14696776	     16.26177780	     61.49848044	    -11.12048647	      0.80051752	    -75.86582121	     13.09222511	     18.65112306	     31.12720832	    -40.43140267	     -1.54131540	      0.38688002	     22.04499997	      3.97690126	     -3.11748056	     47.61839336	    -24.15764196	     -1.43121472	     69.50933379	    123.16618781	      2.37985091	     -4.75274016	     17.50956577	     41.31160238	    -31.35932245	     -1.46456574	     58.68077933	    121.99889342	    -23.89207562	     -5.48370455	    -21.30102971
      2.57250000	      2.19884542	    -16.79606670	     89.61627454	      0.01105545	      0.79566451	      0.32579381	     61.58527579	     -0.96105699	     -1.50083615	    -74.74519376	     17.54495857	      5.16092543	     16.24029656	     61.20016449	    -11.08093937	      0.76969808	    -75.35397650	     12.95206414	     18.62265611	     31.09957011	    -40.29294196	     -1.50796233	      0.39173547	     21.89286112	      3.96263091	     -3.11212870	     46.90279346	    -24.13122780	     -1.50698689	     69.23761654	    123.28098310	      2.26400835	     -4.69600656	     17.48379183	     40.59083933	    -31.17406803	     -1.50463784	     58.44560420	    121.95652166	    -23.85603408	     -5.37645315	    -21.27711396
